<?xml version="1.0" encoding="UTF-8" standalone="no"?>
<!-- Created with Inkscape (http://www.inkscape.org/) -->

<svg
   xmlns:dc="http://purl.org/dc/elements/1.1/"
   xmlns:cc="http://creativecommons.org/ns#"
   xmlns:rdf="http://www.w3.org/1999/02/22-rdf-syntax-ns#"
   xmlns:svg="http://www.w3.org/2000/svg"
   xmlns="http://www.w3.org/2000/svg"
   xmlns:sodipodi="http://sodipodi.sourceforge.net/DTD/sodipodi-0.dtd"
   xmlns:inkscape="http://www.inkscape.org/namespaces/inkscape"
   width="16"
   height="16"
   viewBox="0 0 4.2333332 4.2333335"
   version="1.1"
   id="svg8"
   inkscape:version="0.92.3 (2405546, 2018-03-11)"
   sodipodi:docname="BoneDrop.svg">
  <defs
     id="defs2" />
  <sodipodi:namedview
     id="base"
     pagecolor="#ffffff"
     bordercolor="#666666"
     borderopacity="1.0"
     inkscape:pageopacity="0.0"
     inkscape:pageshadow="2"
     inkscape:zoom="32"
     inkscape:cx="6.8865685"
     inkscape:cy="8.3120648"
     inkscape:document-units="px"
     inkscape:current-layer="layer1"
     showgrid="false"
     units="px"
     inkscape:window-width="1920"
     inkscape:window-height="1017"
     inkscape:window-x="1912"
     inkscape:window-y="-8"
     inkscape:window-maximized="1" />
  <metadata
     id="metadata5">
    <rdf:RDF>
      <cc:Work
         rdf:about="">
        <dc:format>image/svg+xml</dc:format>
        <dc:type
           rdf:resource="http://purl.org/dc/dcmitype/StillImage" />
        <dc:title></dc:title>
      </cc:Work>
    </rdf:RDF>
  </metadata>
  <g
     inkscape:label="Layer 1"
     inkscape:groupmode="layer"
     id="layer1"
     transform="translate(0,-292.76665)">
    <path
       style="opacity:1;fill:#e3e2db;fill-opacity:1;fill-rule:evenodd;stroke:none;stroke-width:1.00000002;stroke-linecap:round;stroke-linejoin:miter;stroke-miterlimit:4;stroke-dasharray:none;stroke-opacity:1;paint-order:stroke fill markers"
       d="M 2.3125 4.1015625 A 2.2343749 2.2343749 0 0 0 0.078125 6.3359375 A 2.2343749 2.2343749 0 0 0 0.72460938 7.90625 A 2.2343747 2.2343747 0 0 0 0.078125 9.4765625 A 2.2343747 2.2343747 0 0 0 2.3125 11.710938 A 2.2343747 2.2343747 0 0 0 4.5332031 9.703125 L 11.558594 9.703125 A 2.2343744 2.2343744 0 0 0 13.78125 11.710938 A 2.2343744 2.2343744 0 0 0 16.015625 9.4765625 A 2.2343744 2.2343744 0 0 0 15.369141 7.90625 A 2.2343747 2.2343747 0 0 0 16.015625 6.3359375 A 2.2343747 2.2343747 0 0 0 13.78125 4.1015625 A 2.2343747 2.2343747 0 0 0 11.560547 6.109375 L 4.5351562 6.109375 A 2.2343749 2.2343749 0 0 0 2.3125 4.1015625 z "
       transform="matrix(0.26458333,0,0,0.26458333,0,292.76665)"
       id="path820" />
  </g>
</svg>
