<?xml version="1.0" encoding="UTF-8" standalone="no"?>
<!-- Created with Inkscape (http://www.inkscape.org/) -->

<svg
   xmlns:dc="http://purl.org/dc/elements/1.1/"
   xmlns:cc="http://creativecommons.org/ns#"
   xmlns:rdf="http://www.w3.org/1999/02/22-rdf-syntax-ns#"
   xmlns:svg="http://www.w3.org/2000/svg"
   xmlns="http://www.w3.org/2000/svg"
   xmlns:xlink="http://www.w3.org/1999/xlink"
   xmlns:sodipodi="http://sodipodi.sourceforge.net/DTD/sodipodi-0.dtd"
   xmlns:inkscape="http://www.inkscape.org/namespaces/inkscape"
   width="512"
   height="128"
   viewBox="0 0 135.46666 33.866668"
   version="1.1"
   id="svg8"
   inkscape:version="0.92.3 (2405546, 2018-03-11)"
   sodipodi:docname="TreeOfLifeBase.svg"
   inkscape:export-filename="D:\Projects\GameDev\Playground Games\LudumDare46\Assets\Art\TreeBase.png"
   inkscape:export-xdpi="96.037102"
   inkscape:export-ydpi="96.037102">
  <defs
     id="defs2">
    <linearGradient
       inkscape:collect="always"
       id="linearGradient1579">
      <stop
         style="stop-color:#008000;stop-opacity:1;"
         offset="0"
         id="stop1575" />
      <stop
         style="stop-color:#d45500;stop-opacity:1"
         offset="1"
         id="stop1577" />
    </linearGradient>
    <linearGradient
       id="linearGradient1573"
       inkscape:collect="always">
      <stop
         id="stop1569"
         offset="0"
         style="stop-color:#008000;stop-opacity:1;" />
      <stop
         id="stop1571"
         offset="1"
         style="stop-color:#ff6600;stop-opacity:1" />
    </linearGradient>
    <linearGradient
       id="linearGradient1567"
       inkscape:collect="always">
      <stop
         id="stop1563"
         offset="0"
         style="stop-color:#008000;stop-opacity:1;" />
      <stop
         id="stop1565"
         offset="1"
         style="stop-color:#ff6600;stop-opacity:1" />
    </linearGradient>
    <linearGradient
       inkscape:collect="always"
       id="linearGradient1555">
      <stop
         style="stop-color:#008000;stop-opacity:1;"
         offset="0"
         id="stop1551" />
      <stop
         style="stop-color:#ff6600;stop-opacity:1"
         offset="1"
         id="stop1553" />
    </linearGradient>
    <linearGradient
       inkscape:collect="always"
       id="linearGradient1451">
      <stop
         style="stop-color:#800000;stop-opacity:1;"
         offset="0"
         id="stop1447" />
      <stop
         style="stop-color:#ff0000;stop-opacity:1"
         offset="1"
         id="stop1449" />
    </linearGradient>
    <linearGradient
       inkscape:collect="always"
       id="linearGradient4669">
      <stop
         style="stop-color:#50753d;stop-opacity:1"
         offset="0"
         id="stop4665" />
      <stop
         style="stop-color:#3e4837;stop-opacity:0;"
         offset="1"
         id="stop4667" />
    </linearGradient>
    <linearGradient
       inkscape:collect="always"
       id="linearGradient4616">
      <stop
         style="stop-color:#584940;stop-opacity:1"
         offset="0"
         id="stop4612" />
      <stop
         style="stop-color:#c1a989;stop-opacity:1"
         offset="1"
         id="stop4614" />
    </linearGradient>
    <linearGradient
       inkscape:collect="always"
       xlink:href="#linearGradient4616"
       id="linearGradient4618"
       x1="33.947136"
       y1="290.3606"
       x2="4.9990563"
       y2="266.30634"
       gradientUnits="userSpaceOnUse"
       gradientTransform="translate(0.06681738,1.3363476)" />
    <linearGradient
       inkscape:collect="always"
       xlink:href="#linearGradient4669"
       id="linearGradient4671"
       x1="39.672085"
       y1="282.60263"
       x2="24.543556"
       y2="267.07941"
       gradientUnits="userSpaceOnUse"
       gradientTransform="translate(0.06681738,1.3363476)" />
    <linearGradient
       inkscape:collect="always"
       xlink:href="#linearGradient4669"
       id="linearGradient4671-9"
       x1="39.672085"
       y1="282.60263"
       x2="24.543556"
       y2="267.07941"
       gradientUnits="userSpaceOnUse"
       gradientTransform="translate(33.813767,1.2271629)" />
    <linearGradient
       inkscape:collect="always"
       xlink:href="#linearGradient4616"
       id="linearGradient4618-5"
       x1="33.947136"
       y1="290.3606"
       x2="4.9990563"
       y2="266.30634"
       gradientUnits="userSpaceOnUse"
       gradientTransform="translate(33.813767,1.2271629)" />
    <linearGradient
       inkscape:collect="always"
       xlink:href="#linearGradient4669"
       id="linearGradient4671-6"
       x1="39.672085"
       y1="282.60263"
       x2="24.543556"
       y2="267.07941"
       gradientUnits="userSpaceOnUse"
       gradientTransform="translate(67.787002,1.1439934)" />
    <linearGradient
       inkscape:collect="always"
       xlink:href="#linearGradient4616"
       id="linearGradient4618-6"
       x1="33.947136"
       y1="290.3606"
       x2="4.9990563"
       y2="266.30634"
       gradientUnits="userSpaceOnUse"
       gradientTransform="translate(67.787002,1.1439934)" />
    <linearGradient
       inkscape:collect="always"
       xlink:href="#linearGradient4669"
       id="linearGradient4671-3"
       x1="39.672085"
       y1="282.60263"
       x2="24.543556"
       y2="267.07941"
       gradientUnits="userSpaceOnUse"
       gradientTransform="translate(101.91394,0.92930008)" />
    <linearGradient
       inkscape:collect="always"
       xlink:href="#linearGradient4616"
       id="linearGradient4618-2"
       x1="33.947136"
       y1="290.3606"
       x2="4.9990563"
       y2="266.30634"
       gradientUnits="userSpaceOnUse"
       gradientTransform="translate(101.91394,0.92930008)" />
    <linearGradient
       inkscape:collect="always"
       xlink:href="#linearGradient1451"
       id="linearGradient1453"
       x1="127.36603"
       y1="269.9274"
       x2="125.58974"
       y2="268.13202"
       gradientUnits="userSpaceOnUse"
       gradientTransform="matrix(0.77928889,0.1300119,-0.1300119,0.77928889,62.622668,42.523939)" />
    <linearGradient
       inkscape:collect="always"
       xlink:href="#linearGradient1451"
       id="linearGradient1453-7"
       x1="127.36603"
       y1="269.9274"
       x2="125.58974"
       y2="268.13202"
       gradientUnits="userSpaceOnUse"
       gradientTransform="matrix(0.51751167,-0.08759026,0.08759026,0.51751167,20.942785,156.81036)" />
    <linearGradient
       inkscape:collect="always"
       xlink:href="#linearGradient1451"
       id="linearGradient1453-7-7"
       x1="127.36603"
       y1="269.9274"
       x2="125.58974"
       y2="268.13202"
       gradientUnits="userSpaceOnUse"
       gradientTransform="matrix(0.51073208,-0.12100879,0.12100879,0.51073208,16.681648,145.11321)" />
    <linearGradient
       inkscape:collect="always"
       xlink:href="#linearGradient1451"
       id="linearGradient1453-7-2"
       x1="127.36603"
       y1="269.9274"
       x2="125.58974"
       y2="268.13202"
       gradientUnits="userSpaceOnUse"
       gradientTransform="matrix(0.33846191,0.07672919,-0.07672919,0.33846191,83.101315,171.48494)" />
    <linearGradient
       inkscape:collect="always"
       xlink:href="#linearGradient1451"
       id="linearGradient1453-7-2-6"
       x1="127.36603"
       y1="269.9274"
       x2="125.58974"
       y2="268.13202"
       gradientUnits="userSpaceOnUse"
       gradientTransform="matrix(0.18235864,-0.09580495,0.09580495,0.18235864,84.978009,239.34059)" />
    <linearGradient
       inkscape:collect="always"
       xlink:href="#linearGradient1555"
       id="linearGradient1557"
       x1="130.05948"
       y1="275.41483"
       x2="128.14188"
       y2="263.60306"
       gradientUnits="userSpaceOnUse" />
    <linearGradient
       inkscape:collect="always"
       xlink:href="#linearGradient1567"
       id="linearGradient1559"
       x1="120.48167"
       y1="273.81458"
       x2="115.97776"
       y2="263.60919"
       gradientUnits="userSpaceOnUse" />
    <linearGradient
       inkscape:collect="always"
       xlink:href="#linearGradient1573"
       id="linearGradient1561"
       x1="112.63438"
       y1="277.24323"
       x2="103.831"
       y2="265.28973"
       gradientUnits="userSpaceOnUse" />
    <linearGradient
       inkscape:collect="always"
       xlink:href="#linearGradient1579"
       id="linearGradient1581"
       x1="122.80984"
       y1="270.00653"
       x2="122.78723"
       y2="264.02979"
       gradientUnits="userSpaceOnUse" />
  </defs>
  <sodipodi:namedview
     id="base"
     pagecolor="#ffffff"
     bordercolor="#666666"
     borderopacity="1.0"
     inkscape:pageopacity="0.0"
     inkscape:pageshadow="2"
     inkscape:zoom="5.6"
     inkscape:cx="476.76054"
     inkscape:cy="66.618864"
     inkscape:document-units="px"
     inkscape:current-layer="layer1"
     showgrid="true"
     units="px"
     inkscape:window-width="1920"
     inkscape:window-height="1017"
     inkscape:window-x="1912"
     inkscape:window-y="-8"
     inkscape:window-maximized="1"
     inkscape:snap-others="false"
     inkscape:snap-grids="false"
     inkscape:object-nodes="false"
     inkscape:snap-nodes="false">
    <inkscape:grid
       type="xygrid"
       id="grid855"
       spacingx="16.933333"
       spacingy="16.933333" />
  </sodipodi:namedview>
  <metadata
     id="metadata5">
    <rdf:RDF>
      <cc:Work
         rdf:about="">
        <dc:format>image/svg+xml</dc:format>
        <dc:type
           rdf:resource="http://purl.org/dc/dcmitype/StillImage" />
        <dc:title></dc:title>
      </cc:Work>
    </rdf:RDF>
  </metadata>
  <g
     inkscape:label="Layer 1"
     inkscape:groupmode="layer"
     id="layer1"
     transform="translate(0,-263.13332)">
    <path
       style="opacity:1;fill:url(#linearGradient4618);fill-opacity:1;stroke:#000000;stroke-width:0.26458332px;stroke-linecap:butt;stroke-linejoin:miter;stroke-opacity:1"
       d="m 3.5630972,293.51714 5.1026784,-4.25223 5.7641364,-0.0945 4.819196,-0.94494 4.063244,-1.98437 1.133929,-3.68527 -0.566964,-4.7247 -2.456845,-1.88988 -4.252233,-0.85045 -2.834821,0.18899 -6.4255948,-1.6064 -1.3229166,-2.07887 -0.5669643,-2.55134 4.3467257,3.68527 2.362351,0.0945 2.456845,-1.98437 0.472471,1.79539 2.362351,0.47247 0.94494,-3.59078 1.322917,-1.22842 1.228423,4.91369 1.889881,1.6064 2.740327,-0.37798 1.41741,-1.5119 2.362351,-0.66146 1.039434,-1.6064 -0.944938,-2.83482 -1.700895,-0.47247 2.456846,-0.47247 2.078869,3.49628 -0.661459,3.49628 -1.889881,2.26786 -1.984375,2.26785 1.039437,3.59078 0.377975,4.06324 1.984375,1.88988 0.755952,4.15774 -1.322917,3.96875 -2.362351,0.75595 0.944941,-3.1183 -1.889881,-3.49628 -2.834822,-0.37798 -0.94494,1.88988 0.566964,2.45685 -0.661458,1.13393 -1.606399,-1.22843 -1.133929,-2.74032 -2.267857,0.37797 -3.685268,-0.56696 -2.078869,1.79539 -0.377976,1.6064 -1.606399,-2.17337 -0.850446,-1.03943 -1.4174101,0.18898 z"
       id="path4610"
       inkscape:connector-curvature="0" />
    <path
       style="fill:url(#linearGradient4671);fill-opacity:1;stroke:#000000;stroke-width:0;stroke-linecap:butt;stroke-linejoin:miter;stroke-miterlimit:4;stroke-dasharray:none;stroke-opacity:1"
       d="m 32.856251,270.36611 -0.661459,3.49628 -3.874256,4.53571 1.039437,3.59078 0.377975,4.06324 1.984375,1.88988 0.755952,4.15774 -1.322917,3.96875 0.04836,-3.47845 -0.801809,-3.67495 -2.00452,-2.33861 -1.670434,-1.20272 0.935442,-1.9377 -0.467722,-1.40316 0.334087,-2.00453 -1.202712,-1.73725 1.069078,-2.40542 2.605879,-1.5368 1.536798,-1.80407 z"
       id="path4655"
       inkscape:connector-curvature="0" />
    <circle
       style="opacity:0.97000002;fill:#241c1c;fill-opacity:1;fill-rule:evenodd;stroke:#000000;stroke-width:0;stroke-linecap:round;stroke-linejoin:miter;stroke-miterlimit:4;stroke-dasharray:none;stroke-opacity:1;paint-order:stroke fill markers"
       id="path4675"
       cx="25.056519"
       cy="280.1669"
       r="0.66817379" />
    <circle
       style="opacity:0.97000002;fill:#241c1c;fill-opacity:1;fill-rule:evenodd;stroke:#000000;stroke-width:0;stroke-linecap:round;stroke-linejoin:miter;stroke-miterlimit:4;stroke-dasharray:none;stroke-opacity:1;paint-order:stroke fill markers"
       id="path4675-5"
       cx="27.595579"
       cy="280.06665"
       r="0.66817379" />
    <path
       style="opacity:0.97000002;fill:#241c1c;fill-opacity:1;fill-rule:evenodd;stroke:#000000;stroke-width:0;stroke-linecap:round;stroke-linejoin:miter;stroke-miterlimit:4;stroke-dasharray:none;stroke-opacity:1;paint-order:stroke fill markers"
       id="path4692"
       sodipodi:type="arc"
       sodipodi:cx="147.21132"
       sodipodi:cy="-242.93683"
       sodipodi:rx="1.3697563"
       sodipodi:ry="1.3697563"
       sodipodi:start="0"
       sodipodi:end="4.2410787"
       d="m 148.58108,-242.93683 a 1.3697563,1.3697563 0 0 1 -1.15545,1.35289 1.3697563,1.3697563 0 0 1 -1.51701,-0.92955 1.3697563,1.3697563 0 0 1 0.68076,-1.64376 l 0.62194,1.22042 z"
       transform="rotate(143.44563)" />
    <rect
       style="opacity:0.97000002;fill:#241c1c;fill-opacity:1;fill-rule:evenodd;stroke:#000000;stroke-width:0;stroke-linecap:round;stroke-linejoin:miter;stroke-miterlimit:4;stroke-dasharray:none;stroke-opacity:1;paint-order:stroke fill markers"
       id="rect4694"
       width="1.8194722"
       height="0.68230212"
       x="166.33456"
       y="224.05974"
       transform="rotate(31.568951)" />
    <rect
       style="opacity:0.97000002;fill:#241c1c;fill-opacity:1;fill-rule:evenodd;stroke:#000000;stroke-width:0;stroke-linecap:round;stroke-linejoin:miter;stroke-miterlimit:4;stroke-dasharray:none;stroke-opacity:1;paint-order:stroke fill markers"
       id="rect4694-9"
       width="1.8194722"
       height="0.68230212"
       x="121.60626"
       y="251.50255"
       transform="matrix(-0.85201077,0.52352426,0.52352426,0.85201077,0,0)" />
    <ellipse
       style="opacity:1;fill:#87de87;fill-opacity:1;fill-rule:evenodd;stroke:#44aa00;stroke-width:0.26458332;stroke-linecap:round;stroke-linejoin:miter;stroke-miterlimit:4;stroke-dasharray:none;stroke-opacity:1;paint-order:stroke fill markers"
       id="path1017-8-7-9-5-7-6"
       cx="50.45982"
       cy="266.7619"
       rx="2.8820691"
       ry="2.8348219" />
    <circle
       style="opacity:1;fill:#87de87;fill-opacity:1;fill-rule:evenodd;stroke:#44aa00;stroke-width:0.26458332;stroke-linecap:round;stroke-linejoin:miter;stroke-miterlimit:4;stroke-dasharray:none;stroke-opacity:1;paint-order:stroke fill markers"
       id="path1017"
       cx="43.750744"
       cy="268.36832"
       r="4.9136906" />
    <circle
       style="opacity:1;fill:#87de87;fill-opacity:1;fill-rule:evenodd;stroke:none;stroke-width:0.19589342;stroke-linecap:round;stroke-linejoin:miter;stroke-miterlimit:4;stroke-dasharray:none;stroke-opacity:1;paint-order:stroke fill markers"
       id="path1017-8"
       cx="48.050224"
       cy="271.0614"
       r="3.638021" />
    <circle
       style="opacity:1;fill:#87de87;fill-opacity:1;fill-rule:evenodd;stroke:#44aa00;stroke-width:0.26458332;stroke-linecap:round;stroke-linejoin:miter;stroke-miterlimit:4;stroke-dasharray:none;stroke-opacity:1;paint-order:stroke fill markers"
       id="path1017-8-7"
       cx="61.799107"
       cy="269.21875"
       r="5.8113842" />
    <ellipse
       style="opacity:1;fill:#87de87;fill-opacity:1;fill-rule:evenodd;stroke:none;stroke-width:0.22471501;stroke-linecap:round;stroke-linejoin:miter;stroke-miterlimit:4;stroke-dasharray:none;stroke-opacity:1;paint-order:stroke fill markers"
       id="path1017-8-7-9"
       cx="56.885418"
       cy="271.34482"
       rx="3.9215033"
       ry="4.4412208" />
    <ellipse
       style="opacity:1;fill:#87de87;fill-opacity:1;fill-rule:evenodd;stroke:#44aa00;stroke-width:0.26458332;stroke-linecap:round;stroke-linejoin:miter;stroke-miterlimit:4;stroke-dasharray:none;stroke-opacity:1;paint-order:stroke fill markers"
       id="path1017-8-7-9-5-7"
       cx="56.034969"
       cy="266.38391"
       rx="2.8820689"
       ry="2.8348219" />
    <ellipse
       style="opacity:1;fill:#87de87;fill-opacity:1;fill-rule:evenodd;stroke:none;stroke-width:0.22471501;stroke-linecap:round;stroke-linejoin:miter;stroke-miterlimit:4;stroke-dasharray:none;stroke-opacity:1;paint-order:stroke fill markers"
       id="path1017-8-7-9-5"
       cx="52.916668"
       cy="269.50223"
       rx="3.9215033"
       ry="4.4412208" />
    <path
       style="opacity:1;fill:url(#linearGradient4618-5);fill-opacity:1;stroke:#000000;stroke-width:0.26458332px;stroke-linecap:butt;stroke-linejoin:miter;stroke-opacity:1"
       d="m 37.310047,293.40795 5.102679,-4.25223 5.764136,-0.0945 4.819196,-0.94494 4.063244,-1.98437 1.133929,-3.68527 -0.566964,-4.7247 -2.456845,-1.88988 -4.252233,-0.85045 -2.834821,0.18899 -6.425595,-1.6064 -1.322916,-2.07887 -0.566965,-2.55134 4.346726,3.68527 2.362351,0.0945 2.456845,-1.98437 0.472471,1.79539 2.362351,0.47247 0.94494,-3.59078 1.322917,-1.22842 1.228423,4.91369 1.889881,1.6064 2.740327,-0.37798 1.41741,-1.5119 2.362351,-0.66146 1.039433,-1.6064 -0.944938,-2.83482 -1.700894,-0.47247 2.456846,-0.47247 2.078868,3.49628 -0.661458,3.49628 -1.889882,2.26786 -1.984374,2.26785 1.039437,3.59078 0.377975,4.06324 1.984375,1.88988 0.755951,4.15774 -1.322916,3.96875 -2.362351,0.75595 0.944941,-3.1183 -1.889881,-3.49628 -2.834822,-0.37798 -0.94494,1.88988 0.566964,2.45685 -0.661458,1.13393 -1.606399,-1.22843 -1.133929,-2.74032 -2.267857,0.37797 -3.685268,-0.56696 -2.078869,1.79539 -0.377976,1.6064 -1.606399,-2.17337 -0.850446,-1.03943 -1.41741,0.18898 z"
       id="path4610-4"
       inkscape:connector-curvature="0" />
    <path
       style="fill:url(#linearGradient4671-9);fill-opacity:1;stroke:#000000;stroke-width:0;stroke-linecap:butt;stroke-linejoin:miter;stroke-miterlimit:4;stroke-dasharray:none;stroke-opacity:1"
       d="m 66.6032,270.25692 -0.661458,3.49628 -3.874256,4.53571 1.039437,3.59078 0.377975,4.06324 1.984375,1.88988 0.755951,4.15774 -1.322916,3.96875 0.04836,-3.47845 -0.801809,-3.67495 -2.00452,-2.33861 -1.670434,-1.20272 0.935442,-1.9377 -0.467722,-1.40316 0.334087,-2.00453 -1.202712,-1.73725 1.069078,-2.40542 2.605879,-1.5368 1.536798,-1.80407 z"
       id="path4655-3"
       inkscape:connector-curvature="0" />
    <circle
       style="opacity:0.97000002;fill:#241c1c;fill-opacity:1;fill-rule:evenodd;stroke:#000000;stroke-width:0;stroke-linecap:round;stroke-linejoin:miter;stroke-miterlimit:4;stroke-dasharray:none;stroke-opacity:1;paint-order:stroke fill markers"
       id="path4675-8"
       cx="58.803467"
       cy="280.05774"
       r="0.66817379" />
    <circle
       style="opacity:0.97000002;fill:#241c1c;fill-opacity:1;fill-rule:evenodd;stroke:#000000;stroke-width:0;stroke-linecap:round;stroke-linejoin:miter;stroke-miterlimit:4;stroke-dasharray:none;stroke-opacity:1;paint-order:stroke fill markers"
       id="path4675-5-9"
       cx="61.342529"
       cy="279.95749"
       r="0.66817379" />
    <path
       style="opacity:0.97000002;fill:#241c1c;fill-opacity:1;fill-rule:evenodd;stroke:#000000;stroke-width:0;stroke-linecap:round;stroke-linejoin:miter;stroke-miterlimit:4;stroke-dasharray:none;stroke-opacity:1;paint-order:stroke fill markers"
       id="path4692-7"
       sodipodi:type="arc"
       sodipodi:cx="-54.904709"
       sodipodi:cy="-283.89648"
       sodipodi:rx="1.3697562"
       sodipodi:ry="1.3697562"
       sodipodi:start="0"
       sodipodi:end="3.1796594"
       d="m -53.534953,-283.89648 a 1.3697562,1.3697562 0 0 1 -0.699985,1.19483 1.3697562,1.3697562 0 0 1 -1.38453,-0.0264 1.3697562,1.3697562 0 0 1 -0.654005,-1.22061 l 1.368764,0.0521 z"
       transform="rotate(178.94279)" />
    <rect
       style="opacity:0.97000002;fill:#241c1c;fill-opacity:1;fill-rule:evenodd;stroke:#000000;stroke-width:0;stroke-linecap:round;stroke-linejoin:miter;stroke-miterlimit:4;stroke-dasharray:none;stroke-opacity:1;paint-order:stroke fill markers"
       id="rect4694-6"
       width="1.8194722"
       height="0.68230212"
       x="109.25546"
       y="262.25433"
       transform="rotate(10.850755)" />
    <rect
       style="opacity:0.97000002;fill:#241c1c;fill-opacity:1;fill-rule:evenodd;stroke:#000000;stroke-width:0;stroke-linecap:round;stroke-linejoin:miter;stroke-miterlimit:4;stroke-dasharray:none;stroke-opacity:1;paint-order:stroke fill markers"
       id="rect4694-9-7"
       width="1.8194722"
       height="0.68230212"
       x="4.7149248"
       y="284.85223"
       transform="matrix(-0.97228568,0.23379597,0.23379597,0.97228568,0,0)" />
    <circle
       style="opacity:1;fill:#008000;fill-opacity:1;fill-rule:evenodd;stroke:#225500;stroke-width:0.26458333;stroke-linecap:round;stroke-linejoin:miter;stroke-miterlimit:4;stroke-dasharray:none;stroke-opacity:1;paint-order:stroke fill markers"
       id="path1169-3"
       cx="89.20121"
       cy="275.01709"
       r="5.8131123" />
    <circle
       style="opacity:1;fill:#008000;fill-opacity:1;fill-rule:evenodd;stroke:#225500;stroke-width:0.26458333;stroke-linecap:round;stroke-linejoin:miter;stroke-miterlimit:4;stroke-dasharray:none;stroke-opacity:1;paint-order:stroke fill markers"
       id="path1169-3-2"
       cx="89.201202"
       cy="267.26624"
       r="3.3408692" />
    <circle
       style="opacity:1;fill:#008000;fill-opacity:1;fill-rule:evenodd;stroke:#225500;stroke-width:0.26458333;stroke-linecap:round;stroke-linejoin:miter;stroke-miterlimit:4;stroke-dasharray:none;stroke-opacity:1;paint-order:stroke fill markers"
       id="path1169"
       cx="74.43457"
       cy="271.80984"
       r="5.8131123" />
    <circle
       style="opacity:1;fill:#008000;fill-opacity:1;fill-rule:evenodd;stroke:#225500;stroke-width:0.26458332;stroke-linecap:round;stroke-linejoin:miter;stroke-miterlimit:4;stroke-dasharray:none;stroke-opacity:1;paint-order:stroke fill markers"
       id="path1169-6"
       cx="83.321274"
       cy="269.13715"
       r="5.8131123" />
    <circle
       style="opacity:1;fill:#008000;fill-opacity:1;fill-rule:evenodd;stroke:#225500;stroke-width:0.26458333;stroke-linecap:round;stroke-linejoin:miter;stroke-miterlimit:4;stroke-dasharray:none;stroke-opacity:1;paint-order:stroke fill markers"
       id="path1169-3-9"
       cx="84.924896"
       cy="279.89471"
       r="2.1381564" />
    <circle
       style="opacity:1;fill:#008000;fill-opacity:1;fill-rule:evenodd;stroke:#225500;stroke-width:0.29766315;stroke-linecap:round;stroke-linejoin:miter;stroke-miterlimit:4;stroke-dasharray:none;stroke-opacity:1;paint-order:stroke fill markers"
       id="path1169-8"
       cx="94.546593"
       cy="270.40668"
       r="7.0661025" />
    <circle
       style="opacity:1;fill:#008000;fill-opacity:1;fill-rule:evenodd;stroke:#225500;stroke-width:0.26458333;stroke-linecap:round;stroke-linejoin:miter;stroke-miterlimit:4;stroke-dasharray:none;stroke-opacity:1;paint-order:stroke fill markers"
       id="path1169-3-7"
       cx="98.889732"
       cy="275.68524"
       r="2.4054258" />
    <path
       style="opacity:1;fill:url(#linearGradient4618-6);fill-opacity:1;stroke:#000000;stroke-width:0.26458332px;stroke-linecap:butt;stroke-linejoin:miter;stroke-opacity:1"
       d="m 71.283282,293.32478 5.102678,-4.25223 5.764137,-0.0945 4.819196,-0.94494 4.063244,-1.98437 1.133929,-3.68527 -0.566964,-4.7247 -2.456845,-1.88988 -4.252233,-0.85045 -2.834821,0.18899 -6.425595,-1.6064 -1.322916,-2.07887 -0.566965,-2.55134 4.346726,3.68527 2.362351,0.0945 2.456845,-1.98437 0.472471,1.79539 2.362351,0.47247 0.94494,-3.59078 1.322917,-1.22842 1.228423,4.91369 1.889881,1.6064 2.740327,-0.37798 1.41741,-1.5119 2.362351,-0.66146 1.039433,-1.6064 -0.944938,-2.83482 -1.700894,-0.47247 2.456846,-0.47247 2.078873,3.49628 -0.661463,3.49628 -1.889882,2.26786 -1.984374,2.26785 1.039437,3.59078 0.377975,4.06324 1.984375,1.88988 0.755952,4.15774 -1.322917,3.96875 -2.362351,0.75595 0.944941,-3.1183 -1.889881,-3.49628 -2.834822,-0.37798 -0.94494,1.88988 0.566964,2.45685 -0.661458,1.13393 -1.606399,-1.22843 -1.133929,-2.74032 -2.267857,0.37797 -3.685268,-0.56696 -2.078869,1.79539 -0.377976,1.6064 -1.606399,-2.17337 -0.850446,-1.03943 -1.41741,0.18898 z"
       id="path4610-9"
       inkscape:connector-curvature="0" />
    <circle
       style="opacity:1;fill:#008000;fill-opacity:1;fill-rule:evenodd;stroke:#225500;stroke-width:0.26458333;stroke-linecap:round;stroke-linejoin:miter;stroke-miterlimit:4;stroke-dasharray:none;stroke-opacity:1;paint-order:stroke fill markers"
       id="path1169-3-7-8"
       cx="99.624725"
       cy="278.75882"
       r="1.2027129" />
    <path
       style="fill:url(#linearGradient4671-6);fill-opacity:1;stroke:#000000;stroke-width:0;stroke-linecap:butt;stroke-linejoin:miter;stroke-miterlimit:4;stroke-dasharray:none;stroke-opacity:1"
       d="m 100.57644,270.17375 -0.661463,3.49628 -3.874256,4.53571 1.039437,3.59078 0.377975,4.06324 1.984375,1.88988 0.755952,4.15774 -1.322917,3.96875 0.04836,-3.47845 -0.801809,-3.67495 -2.00452,-2.33861 -1.670434,-1.20272 0.935442,-1.9377 -0.467722,-1.40316 0.334087,-2.00453 -1.202712,-1.73725 1.069078,-2.40542 2.605879,-1.5368 1.536798,-1.80407 z"
       id="path4655-39"
       inkscape:connector-curvature="0" />
    <circle
       style="opacity:1;fill:#008000;fill-opacity:1;fill-rule:evenodd;stroke:#225500;stroke-width:0.26458333;stroke-linecap:round;stroke-linejoin:miter;stroke-miterlimit:4;stroke-dasharray:none;stroke-opacity:1;paint-order:stroke fill markers"
       id="path1169-3-8"
       cx="73.666161"
       cy="278.45816"
       r="3.0401909" />
    <circle
       style="opacity:1;fill:#008000;fill-opacity:1;fill-rule:evenodd;stroke:#225500;stroke-width:0.26458333;stroke-linecap:round;stroke-linejoin:miter;stroke-miterlimit:4;stroke-dasharray:none;stroke-opacity:1;paint-order:stroke fill markers"
       id="path1169-3-5"
       cx="76.439087"
       cy="281.49838"
       r="1.737252" />
    <circle
       style="opacity:0.97000002;fill:#241c1c;fill-opacity:1;fill-rule:evenodd;stroke:#000000;stroke-width:0;stroke-linecap:round;stroke-linejoin:miter;stroke-miterlimit:4;stroke-dasharray:none;stroke-opacity:1;paint-order:stroke fill markers"
       id="path4675-6"
       cx="92.776703"
       cy="279.97455"
       r="0.66817379" />
    <circle
       style="opacity:0.97000002;fill:#241c1c;fill-opacity:1;fill-rule:evenodd;stroke:#000000;stroke-width:0;stroke-linecap:round;stroke-linejoin:miter;stroke-miterlimit:4;stroke-dasharray:none;stroke-opacity:1;paint-order:stroke fill markers"
       id="path4675-5-8"
       cx="95.315765"
       cy="279.8743"
       r="0.66817379" />
    <path
       style="opacity:0.97000002;fill:#241c1c;fill-opacity:1;fill-rule:evenodd;stroke:#000000;stroke-width:0;stroke-linecap:round;stroke-linejoin:miter;stroke-miterlimit:4;stroke-dasharray:none;stroke-opacity:1;paint-order:stroke fill markers"
       id="path4692-70"
       sodipodi:type="arc"
       sodipodi:cx="-193.94461"
       sodipodi:cy="225.20398"
       sodipodi:rx="1.3697562"
       sodipodi:ry="1.3697562"
       sodipodi:start="1.0840015"
       sodipodi:end="4.2410787"
       d="m -193.30384,226.41462 a 1.3697562,1.3697562 0 0 1 -1.37481,-0.0542 1.3697562,1.3697562 0 0 1 -0.6342,-1.221 1.3697562,1.3697562 0 0 1 0.7463,-1.15589 l 0.62194,1.22042 z"
       transform="rotate(-59.215833)" />
    <rect
       style="opacity:0.97000002;fill:#241c1c;fill-opacity:1;fill-rule:evenodd;stroke:#000000;stroke-width:0;stroke-linecap:round;stroke-linejoin:miter;stroke-miterlimit:4;stroke-dasharray:none;stroke-opacity:1;paint-order:stroke fill markers"
       id="rect4694-0"
       width="1.8194722"
       height="0.68230212"
       x="-12.446299"
       y="292.36343"
       transform="rotate(-20.719859)" />
    <rect
       style="opacity:0.97000002;fill:#241c1c;fill-opacity:1;fill-rule:evenodd;stroke:#000000;stroke-width:0;stroke-linecap:round;stroke-linejoin:miter;stroke-miterlimit:4;stroke-dasharray:none;stroke-opacity:1;paint-order:stroke fill markers"
       id="rect4694-9-6"
       width="1.8194722"
       height="0.68230212"
       x="-97.210999"
       y="277.79498"
       transform="matrix(-0.99999191,-0.00402303,-0.00402303,0.99999191,0,0)" />
    <circle
       style="opacity:1;fill:#008000;fill-opacity:1;fill-rule:evenodd;stroke:#225500;stroke-width:0.26458332;stroke-linecap:round;stroke-linejoin:miter;stroke-miterlimit:4;stroke-dasharray:none;stroke-opacity:1;paint-order:stroke fill markers"
       id="path1169-3-3"
       cx="122.81036"
       cy="275.01706"
       r="5.8131123" />
    <circle
       style="opacity:1;fill:url(#linearGradient1581);fill-opacity:1;fill-rule:evenodd;stroke:#225500;stroke-width:0.26458332;stroke-linecap:round;stroke-linejoin:miter;stroke-miterlimit:4;stroke-dasharray:none;stroke-opacity:1;paint-order:stroke fill markers"
       id="path1169-3-2-0"
       cx="122.81035"
       cy="267.2662"
       r="3.3408692" />
    <circle
       style="opacity:1;fill:#008000;fill-opacity:1;fill-rule:evenodd;stroke:#225500;stroke-width:0.16529331;stroke-linecap:round;stroke-linejoin:miter;stroke-miterlimit:4;stroke-dasharray:none;stroke-opacity:1;paint-order:stroke fill markers"
       id="path1169-3-5-3-2-0-5-5"
       cx="114.39135"
       cy="274.95026"
       r="1.0853145" />
    <circle
       style="opacity:1;fill:#008000;fill-opacity:1;fill-rule:evenodd;stroke:#225500;stroke-width:0.26458332;stroke-linecap:round;stroke-linejoin:miter;stroke-miterlimit:4;stroke-dasharray:none;stroke-opacity:1;paint-order:stroke fill markers"
       id="path1169-3-8-6"
       cx="107.27531"
       cy="278.45813"
       r="3.0401909" />
    <circle
       style="opacity:1;fill:url(#linearGradient1561);fill-opacity:1;fill-rule:evenodd;stroke:#225500;stroke-width:0.26458332;stroke-linecap:round;stroke-linejoin:miter;stroke-miterlimit:4;stroke-dasharray:none;stroke-opacity:1;paint-order:stroke fill markers"
       id="path1169-30"
       cx="108.0437"
       cy="271.80981"
       r="5.8131123" />
    <circle
       style="opacity:1;fill:url(#linearGradient1559);fill-opacity:1;fill-rule:evenodd;stroke:#225500;stroke-width:0.26458332;stroke-linecap:round;stroke-linejoin:miter;stroke-miterlimit:4;stroke-dasharray:none;stroke-opacity:1;paint-order:stroke fill markers"
       id="path1169-6-6"
       cx="116.93043"
       cy="269.13712"
       r="5.8131123" />
    <circle
       style="opacity:1;fill:#008000;fill-opacity:1;fill-rule:evenodd;stroke:#225500;stroke-width:0.26458332;stroke-linecap:round;stroke-linejoin:miter;stroke-miterlimit:4;stroke-dasharray:none;stroke-opacity:1;paint-order:stroke fill markers"
       id="path1169-3-9-0"
       cx="118.53404"
       cy="279.89468"
       r="2.1381564" />
    <circle
       style="opacity:1;fill:url(#linearGradient1557);fill-opacity:1;fill-rule:evenodd;stroke:#225500;stroke-width:0.29766315;stroke-linecap:round;stroke-linejoin:miter;stroke-miterlimit:4;stroke-dasharray:none;stroke-opacity:1;paint-order:stroke fill markers"
       id="path1169-8-8"
       cx="128.15573"
       cy="270.40665"
       r="7.0661025" />
    <circle
       style="opacity:1;fill:#008000;fill-opacity:1;fill-rule:evenodd;stroke:#225500;stroke-width:0.26458332;stroke-linecap:round;stroke-linejoin:miter;stroke-miterlimit:4;stroke-dasharray:none;stroke-opacity:1;paint-order:stroke fill markers"
       id="path1169-3-7-0"
       cx="132.49887"
       cy="275.68521"
       r="2.4054258" />
    <circle
       style="opacity:1;fill:#008000;fill-opacity:1;fill-rule:evenodd;stroke:#225500;stroke-width:0.26458332;stroke-linecap:round;stroke-linejoin:miter;stroke-miterlimit:4;stroke-dasharray:none;stroke-opacity:1;paint-order:stroke fill markers"
       id="path1169-3-7-8-5"
       cx="133.23387"
       cy="278.75879"
       r="1.2027129" />
    <circle
       style="opacity:1;fill:#008000;fill-opacity:1;fill-rule:evenodd;stroke:#225500;stroke-width:0.26458332;stroke-linecap:round;stroke-linejoin:miter;stroke-miterlimit:4;stroke-dasharray:none;stroke-opacity:1;paint-order:stroke fill markers"
       id="path1169-3-5-3"
       cx="110.04823"
       cy="281.49835"
       r="1.737252" />
    <path
       style="opacity:1;fill:url(#linearGradient4618-2);fill-opacity:1;stroke:#000000;stroke-width:0.26458332px;stroke-linecap:butt;stroke-linejoin:miter;stroke-opacity:1"
       d="m 105.41022,293.11009 5.10268,-4.25223 5.76414,-0.0945 4.81919,-0.94494 4.06325,-1.98437 1.13392,-3.68527 -0.56696,-4.7247 -2.45684,-1.88988 -4.25224,-0.85045 -2.83482,0.18899 -6.42559,-1.6064 -1.32292,-2.07887 -0.56696,-2.55134 4.34672,3.68527 2.36235,0.0945 2.45685,-1.98437 0.47247,1.79539 2.36235,0.47247 0.94494,-3.59078 1.32292,-1.22842 1.22842,4.91369 1.88988,1.6064 2.74033,-0.37798 1.41741,-1.5119 2.36235,-0.66146 1.03943,-1.6064 -0.94494,-2.83482 -1.70089,-0.47247 2.45685,-0.47247 2.07886,3.49628 -0.66145,3.49628 -1.88989,2.26786 -1.98437,2.26785 1.03944,3.59078 0.37797,4.06324 1.98438,1.88988 0.75595,4.15774 -1.32292,3.96875 -2.36235,0.75595 0.94494,-3.1183 -1.88988,-3.49628 -2.83482,-0.37798 -0.94494,1.88988 0.56696,2.45685 -0.66146,1.13393 -1.60639,-1.22843 -1.13393,-2.74032 -2.26786,0.37797 -3.68527,-0.56696 -2.07887,1.79539 -0.37797,1.6064 -1.6064,-2.17337 -0.85045,-1.03943 -1.41741,0.18898 z"
       id="path4610-2"
       inkscape:connector-curvature="0" />
    <path
       style="fill:url(#linearGradient4671-3);fill-opacity:1;stroke:#000000;stroke-width:0;stroke-linecap:butt;stroke-linejoin:miter;stroke-miterlimit:4;stroke-dasharray:none;stroke-opacity:1"
       d="m 134.70337,269.95906 -0.66145,3.49628 -3.87426,4.53571 1.03944,3.59078 0.37797,4.06324 1.98438,1.88988 0.75595,4.15774 -1.32292,3.96875 0.0484,-3.47845 -0.80181,-3.67495 -2.00452,-2.33861 -1.67043,-1.20272 0.93544,-1.9377 -0.46772,-1.40316 0.33409,-2.00453 -1.20272,-1.73725 1.06908,-2.40542 2.60588,-1.5368 1.5368,-1.80407 z"
       id="path4655-2"
       inkscape:connector-curvature="0" />
    <circle
       style="opacity:0.97000002;fill:#241c1c;fill-opacity:1;fill-rule:evenodd;stroke:#000000;stroke-width:0;stroke-linecap:round;stroke-linejoin:miter;stroke-miterlimit:4;stroke-dasharray:none;stroke-opacity:1;paint-order:stroke fill markers"
       id="path4675-80"
       cx="126.90363"
       cy="279.75983"
       r="0.66817379" />
    <circle
       style="opacity:0.97000002;fill:#241c1c;fill-opacity:1;fill-rule:evenodd;stroke:#000000;stroke-width:0;stroke-linecap:round;stroke-linejoin:miter;stroke-miterlimit:4;stroke-dasharray:none;stroke-opacity:1;paint-order:stroke fill markers"
       id="path4675-5-80"
       cx="129.4427"
       cy="279.65958"
       r="0.66817379" />
    <path
       style="opacity:0.97000002;fill:#241c1c;fill-opacity:1;fill-rule:evenodd;stroke:#000000;stroke-width:0;stroke-linecap:round;stroke-linejoin:miter;stroke-miterlimit:4;stroke-dasharray:none;stroke-opacity:1;paint-order:stroke fill markers"
       id="path4692-8"
       sodipodi:type="arc"
       sodipodi:cx="-241.41937"
       sodipodi:cy="193.93642"
       sodipodi:rx="1.3697562"
       sodipodi:ry="1.3697562"
       sodipodi:start="0"
       sodipodi:end="4.2410787"
       d="m -240.04962,193.93642 a 1.3697562,1.3697562 0 0 1 -1.15544,1.35288 1.3697562,1.3697562 0 0 1 -1.51701,-0.92954 1.3697562,1.3697562 0 0 1 0.68075,-1.64376 l 0.62195,1.22042 z"
       transform="matrix(-0.89288944,-0.45027597,-0.45027597,0.89288944,0,0)" />
    <rect
       style="opacity:0.97000002;fill:#241c1c;fill-opacity:1;fill-rule:evenodd;stroke:#000000;stroke-width:0;stroke-linecap:round;stroke-linejoin:miter;stroke-miterlimit:4;stroke-dasharray:none;stroke-opacity:1;paint-order:stroke fill markers"
       id="rect4694-1"
       width="1.8194722"
       height="0.68230212"
       x="252.89629"
       y="170.39351"
       transform="rotate(31.568951)" />
    <rect
       style="opacity:0.97000002;fill:#241c1c;fill-opacity:1;fill-rule:evenodd;stroke:#000000;stroke-width:0;stroke-linecap:round;stroke-linejoin:miter;stroke-miterlimit:4;stroke-dasharray:none;stroke-opacity:1;paint-order:stroke fill markers"
       id="rect4694-9-71"
       width="1.8194722"
       height="0.68230212"
       x="34.61832"
       y="304.47516"
       transform="matrix(-0.85201078,0.52352424,0.52352424,0.85201078,0,0)" />
    <path
       style="opacity:1;fill:#de8787;fill-opacity:1;fill-rule:evenodd;stroke:#550000;stroke-width:0.26458332;stroke-linecap:round;stroke-linejoin:miter;stroke-miterlimit:4;stroke-dasharray:none;stroke-opacity:1;paint-order:stroke fill markers"
       d="m 45.791278,270.52464 c -0.0036,4e-5 -0.106672,0.18662 -0.175183,0.3111 l -0.223243,-0.18242 c -0.177958,0.21795 -0.156494,0.53653 0.04909,0.72864 0.205613,0.19199 0.524847,0.19177 0.730186,-5.2e-4 0.205428,-0.19225 0.226669,-0.51082 0.04858,-0.72864 l -0.238228,0.19482 c -0.06775,-0.11786 -0.187447,-0.32302 -0.191204,-0.32298 z"
       id="path1111"
       inkscape:connector-curvature="0"
       sodipodi:nodetypes="ccccccccc" />
    <path
       style="opacity:1;fill:#de8787;fill-opacity:1;fill-rule:evenodd;stroke:#550000;stroke-width:0.26458332;stroke-linecap:round;stroke-linejoin:miter;stroke-miterlimit:4;stroke-dasharray:none;stroke-opacity:1;paint-order:stroke fill markers"
       d="m 43.227253,266.63073 c -0.0033,0.001 -0.03321,0.21237 -0.05289,0.35309 l -0.273574,-0.0909 c -0.08866,0.26704 0.04486,0.55708 0.305384,0.66338 0.260509,0.10616 0.558731,-0.008 0.682118,-0.26055 0.123485,-0.25281 0.02987,-0.55806 -0.214119,-0.69816 l -0.153218,0.26689 c -0.105285,-0.086 -0.290203,-0.23508 -0.293699,-0.2337 z"
       id="path1111-4"
       inkscape:connector-curvature="0"
       sodipodi:nodetypes="ccccccccc" />
    <path
       style="opacity:1;fill:#de8787;fill-opacity:1;fill-rule:evenodd;stroke:#550000;stroke-width:0.26458332;stroke-linecap:round;stroke-linejoin:miter;stroke-miterlimit:4;stroke-dasharray:none;stroke-opacity:1;paint-order:stroke fill markers"
       d="m 61.168855,270.05719 c -0.0035,-9.8e-4 -0.154849,0.14909 -0.255601,0.24928 l -0.162933,-0.23784 c -0.232069,0.15911 -0.301062,0.47087 -0.1578,0.71304 0.143324,0.24206 0.449737,0.33163 0.700865,0.20484 0.251202,-0.12672 0.361174,-0.42646 0.251527,-0.68557 l -0.283401,0.11996 c -0.03187,-0.13215 -0.08904,-0.36269 -0.09266,-0.36371 z"
       id="path1111-8"
       inkscape:connector-curvature="0"
       sodipodi:nodetypes="ccccccccc" />
    <path
       style="opacity:1;fill:#de8787;fill-opacity:1;fill-rule:evenodd;stroke:#550000;stroke-width:0.26458332;stroke-linecap:round;stroke-linejoin:miter;stroke-miterlimit:4;stroke-dasharray:none;stroke-opacity:1;paint-order:stroke fill markers"
       d="m 55.016744,266.14662 c -0.0031,0.002 2.34e-4,0.21495 0.0027,0.35702 l -0.284392,-0.0473 c -0.04604,0.27758 0.130979,0.54332 0.404867,0.60779 0.273855,0.0643 0.550725,-0.0946 0.63328,-0.3635 0.08265,-0.26894 -0.05731,-0.5559 -0.320125,-0.65635 l -0.109833,0.28748 c -0.117382,-0.0686 -0.32324,-0.18706 -0.32648,-0.18516 z"
       id="path1111-6"
       inkscape:connector-curvature="0"
       sodipodi:nodetypes="ccccccccc" />
    <path
       style="opacity:1;fill:#de8787;fill-opacity:1;fill-rule:evenodd;stroke:#550000;stroke-width:0.17565151;stroke-linecap:round;stroke-linejoin:miter;stroke-miterlimit:4;stroke-dasharray:none;stroke-opacity:1;paint-order:stroke fill markers"
       d="m 49.443545,269.16346 c -0.0023,-8.1e-4 -0.109356,0.0917 -0.180649,0.15344 l -0.09707,-0.16494 c -0.160953,0.0948 -0.22086,0.29814 -0.137016,0.46506 0.08389,0.16686 0.282749,0.24014 0.454856,0.16762 0.17215,-0.0725 0.258649,-0.26599 0.19784,-0.4426 l -0.19317,0.0665 c -0.01507,-0.089 -0.04244,-0.24428 -0.04479,-0.24511 z"
       id="path1111-5"
       inkscape:connector-curvature="0"
       sodipodi:nodetypes="ccccccccc" />
    <path
       style="opacity:1;fill:#de8787;fill-opacity:1;fill-rule:evenodd;stroke:#550000;stroke-width:0.33964148;stroke-linecap:round;stroke-linejoin:miter;stroke-miterlimit:4;stroke-dasharray:none;stroke-opacity:1;paint-order:stroke fill markers"
       d="m 61.656094,264.66154 c -0.0042,-0.002 -0.220345,0.1661 -0.364204,0.27822 l -0.170929,-0.32824 c -0.320299,0.16695 -0.456341,0.5536 -0.311146,0.88433 0.145288,0.3306 0.521947,0.49203 0.861546,0.36922 0.339684,-0.12272 0.526091,-0.48772 0.42635,-0.83485 l -0.379671,0.10913 c -0.02022,-0.17333 -0.0575,-0.47595 -0.06195,-0.47781 z"
       id="path1111-3"
       inkscape:connector-curvature="0"
       sodipodi:nodetypes="ccccccccc" />
    <path
       style="opacity:1;fill:#de8787;fill-opacity:1;fill-rule:evenodd;stroke:#550000;stroke-width:0.26458332;stroke-linecap:round;stroke-linejoin:miter;stroke-miterlimit:4;stroke-dasharray:none;stroke-opacity:1;paint-order:stroke fill markers"
       d="m 50.536191,266.00797 c -0.0034,-0.001 -0.168228,0.13381 -0.277987,0.22405 l -0.139759,-0.25216 c -0.246049,0.1365 -0.344158,0.44036 -0.224391,0.69497 0.119839,0.25451 0.416431,0.37259 0.678403,0.27007 0.262041,-0.10244 0.399811,-0.39047 0.315109,-0.65877 l -0.293458,0.0927 c -0.01926,-0.13457 -0.05441,-0.36948 -0.05792,-0.37084 z"
       id="path1111-50"
       inkscape:connector-curvature="0"
       sodipodi:nodetypes="ccccccccc" />
    <circle
       style="opacity:1;fill:#008000;fill-opacity:1;fill-rule:evenodd;stroke:#225500;stroke-width:0.16529331;stroke-linecap:round;stroke-linejoin:miter;stroke-miterlimit:4;stroke-dasharray:none;stroke-opacity:1;paint-order:stroke fill markers"
       id="path1169-3-5-3-2"
       cx="109.68074"
       cy="283.80359"
       r="1.0853145" />
    <circle
       style="opacity:1;fill:#008000;fill-opacity:1;fill-rule:evenodd;stroke:#225500;stroke-width:0.16529331;stroke-linecap:round;stroke-linejoin:miter;stroke-miterlimit:4;stroke-dasharray:none;stroke-opacity:1;paint-order:stroke fill markers"
       id="path1169-3-5-3-2-0"
       cx="119.66993"
       cy="282.63428"
       r="1.0853145" />
    <circle
       style="opacity:1;fill:#008000;fill-opacity:1;fill-rule:evenodd;stroke:#225500;stroke-width:0.16529331;stroke-linecap:round;stroke-linejoin:miter;stroke-miterlimit:4;stroke-dasharray:none;stroke-opacity:1;paint-order:stroke fill markers"
       id="path1169-3-5-3-2-0-5"
       cx="132.76614"
       cy="280.69656"
       r="1.0853145" />
    <circle
       style="opacity:1;fill:#008000;fill-opacity:1;fill-rule:evenodd;stroke:#225500;stroke-width:0.11801235;stroke-linecap:round;stroke-linejoin:miter;stroke-miterlimit:4;stroke-dasharray:none;stroke-opacity:1;paint-order:stroke fill markers"
       id="path1169-3-5-3-2-0-5-5-4"
       cx="113.58955"
       cy="276.21979"
       r="0.77486807" />
    <circle
       style="opacity:1;fill:#008000;fill-opacity:1;fill-rule:evenodd;stroke:#225500;stroke-width:0.08964377;stroke-linecap:round;stroke-linejoin:miter;stroke-miterlimit:4;stroke-dasharray:none;stroke-opacity:1;paint-order:stroke fill markers"
       id="path1169-3-5-3-2-0-5-5-4-5"
       cx="113.85683"
       cy="277.22208"
       r="0.58860028" />
    <path
       style="opacity:1;fill:url(#linearGradient1453);fill-opacity:1;fill-rule:evenodd;stroke:#550000;stroke-width:0.2090366;stroke-linecap:round;stroke-linejoin:miter;stroke-miterlimit:4;stroke-dasharray:none;stroke-opacity:1;paint-order:stroke fill markers"
       d="m 126.21446,267.35454 c -0.50806,-0.0847 -0.98863,0.25841 -1.07342,0.76646 -0.029,0.43686 0.0423,0.9174 0.14695,1.26863 0.41993,1.38751 1.08422,1.54277 2.07587,0.48535 0.35535,-0.37724 0.56439,-0.78812 0.67277,-1.23449 0.0847,-0.50807 -0.25842,-0.98863 -0.76647,-1.07343 -0.18009,-0.0299 -0.36501,-0.006 -0.53183,0.0678 -0.1394,-0.14805 -0.32335,-0.24649 -0.52387,-0.28033 z"
       id="path1415"
       inkscape:connector-curvature="0"
       sodipodi:nodetypes="cccccccc" />
    <path
       style="opacity:1;fill:url(#linearGradient1453-7);fill-opacity:1;fill-rule:evenodd;stroke:#550000;stroke-width:0.13887231;stroke-linecap:round;stroke-linejoin:miter;stroke-miterlimit:4;stroke-dasharray:none;stroke-opacity:1;paint-order:stroke fill markers"
       d="m 109.69009,284.16267 c -0.3374,0.0571 -0.56461,0.37692 -0.50753,0.71432 0.0767,0.28057 0.22579,0.56679 0.36775,0.76461 0.56494,0.77996 1.01573,0.73319 1.40873,-0.14604 0.14119,-0.31401 0.18322,-0.61738 0.15434,-0.92117 -0.0571,-0.3374 -0.37693,-0.56461 -0.71432,-0.50752 -0.11958,0.0203 -0.23057,0.0752 -0.31919,0.15805 -0.11967,-0.0627 -0.25654,-0.0845 -0.38978,-0.0623 z"
       id="path1415-1"
       inkscape:connector-curvature="0"
       sodipodi:nodetypes="cccccccc" />
    <path
       style="opacity:1;fill:url(#linearGradient1453-7-7);fill-opacity:1;fill-rule:evenodd;stroke:#550000;stroke-width:0.13887231;stroke-linecap:round;stroke-linejoin:miter;stroke-miterlimit:4;stroke-dasharray:none;stroke-opacity:1;paint-order:stroke fill markers"
       d="m 113.51099,266.43416 c -0.33298,0.0789 -0.53895,0.41279 -0.46007,0.74577 0.0947,0.275 0.26211,0.55093 0.41661,0.73911 0.6144,0.74163 1.0612,0.6657 1.39628,-0.2372 0.1205,-0.32252 0.14275,-0.62798 0.0942,-0.92925 -0.0789,-0.33297 -0.41279,-0.53894 -0.74577,-0.46007 -0.118,0.028 -0.22519,0.09 -0.30825,0.17845 -0.12349,-0.0548 -0.26149,-0.0677 -0.393,-0.0368 z"
       id="path1415-1-2"
       inkscape:connector-curvature="0"
       sodipodi:nodetypes="cccccccc" />
    <path
       style="opacity:1;fill:url(#linearGradient1453-7-2);fill-opacity:1;fill-rule:evenodd;stroke:#550000;stroke-width:0.09182369;stroke-linecap:round;stroke-linejoin:miter;stroke-miterlimit:4;stroke-dasharray:none;stroke-opacity:1;paint-order:stroke fill markers"
       d="m 105.30148,271.69124 c -0.22066,-0.0501 -0.44009,0.0883 -0.49013,0.30897 -0.0237,0.19086 -0.005,0.40338 0.0323,0.56007 0.14906,0.6191 0.43645,0.70399 0.89808,0.26536 0.16538,-0.15645 0.26745,-0.33135 0.32627,-0.52436 0.0501,-0.22066 -0.0883,-0.4401 -0.30898,-0.49013 -0.0782,-0.0177 -0.1599,-0.0121 -0.23494,0.0163 -0.0574,-0.0685 -0.13558,-0.11624 -0.22263,-0.13621 z"
       id="path1415-1-4"
       inkscape:connector-curvature="0"
       sodipodi:nodetypes="cccccccc" />
    <path
       style="opacity:1;fill:url(#linearGradient1453-7-2-6);fill-opacity:1;fill-rule:evenodd;stroke:#550000;stroke-width:0.05450241;stroke-linecap:round;stroke-linejoin:miter;stroke-miterlimit:4;stroke-dasharray:none;stroke-opacity:1;paint-order:stroke fill markers"
       d="m 133.61865,276.0196 c -0.1189,0.0625 -0.16464,0.20946 -0.10218,0.32837 0.0628,0.0953 0.15318,0.18403 0.23045,0.24035 0.30591,0.22201 0.46834,0.14959 0.50768,-0.22633 0.0144,-0.13441 -0.007,-0.25265 -0.0548,-0.36244 -0.0625,-0.1189 -0.20947,-0.16465 -0.32838,-0.10217 -0.0421,0.0221 -0.0767,0.0563 -0.0996,0.0981 -0.0523,-0.009 -0.10602,-2.1e-4 -0.15296,0.0243 z"
       id="path1415-1-4-0"
       inkscape:connector-curvature="0"
       sodipodi:nodetypes="cccccccc" />
  </g>
</svg>
